<?xml version="1.0" standalone="no"?>
<!DOCTYPE svg PUBLIC "-//W3C//DTD SVG 20010904//EN"
 "http://www.w3.org/TR/2001/REC-SVG-20010904/DTD/svg10.dtd">
<svg xmlns="http://www.w3.org/2000/svg"
     width="1200.000000pt" height="1143.000000pt" viewBox="0 0 1200.000000 1143.000000"
     preserveAspectRatio="xMidYMid meet">
<g transform="translate(0.000000,1143.000000) scale(0.100000,-0.100000)"
fill="#F00000" stroke="none">
<path d="M4935 8729 c-185 -17 -435 -65 -553 -105 -24 -8 -58 -16 -75 -18 -40
-5 -199 -63 -289 -105 -38 -17 -98 -45 -135 -61 -275 -124 -569 -334 -824
-589 -184 -184 -312 -345 -436 -546 -102 -165 -119 -198 -198 -376 -182 -415
-265 -844 -252 -1304 7 -227 29 -395 81 -607 19 -79 38 -159 41 -178 21 -100
190 -489 269 -619 112 -183 169 -269 237 -356 177 -227 362 -408 591 -577 405
-299 823 -475 1323 -558 414 -68 763 -53 1208 51 187 44 294 80 442 146 55 25
121 54 148 64 102 41 420 235 425 260 3 15 -60 69 -120 104 -43 25 -260 230
-362 341 -250 273 -462 618 -586 952 -25 67 -48 122 -52 122 -4 0 -47 -23 -95
-50 -48 -28 -94 -50 -103 -50 -8 0 -38 -9 -67 -20 -147 -56 -368 -74 -536 -45
-102 18 -283 77 -347 112 -153 87 -306 223 -402 358 -77 109 -154 297 -182
445 -30 157 -16 380 34 525 101 295 253 487 513 644 197 120 505 177 736 137
124 -22 290 -78 375 -126 38 -22 72 -40 75 -40 4 0 17 26 28 58 12 31 35 95
52 141 28 75 73 166 181 366 71 130 239 358 374 507 115 127 275 274 404 371
50 38 92 72 92 76 0 11 -381 244 -388 237 -2 -3 -43 15 -91 39 -175 87 -282
126 -512 184 -355 90 -701 120 -1024 90z"/>
<path d="M8490 6845 c-96 -17 -233 -60 -286 -91 -23 -13 -43 -21 -46 -19 -9
10 -130 -72 -221 -150 -137 -117 -258 -282 -315 -430 -112 -293 -117 -539 -16
-837 94 -279 353 -550 631 -658 161 -63 240 -81 398 -87 197 -8 308 14 513 98
168 70 328 198 455 368 80 107 91 127 142 258 58 150 78 256 78 418 0 162 -19
265 -77 413 -20 50 -36 95 -36 98 0 17 -137 210 -187 265 -93 100 -270 234
-322 244 -10 2 -40 14 -67 28 -64 32 -200 73 -291 86 -94 14 -259 12 -353 -4z"/>
</g>
</svg>
